<?xml version="1.0" encoding="UTF-8" standalone="no"?>
<svg
    viewBox="-50 -50 63.999996 52.59922"
    width="63.999996"
    height="52.59922"
    version="1.1"
    id="svg706"
    sodipodi:docname="Get Alert - 3.svg"
    inkscape:export-filename="Get Alert - 2-inverted.png"
    inkscape:export-xdpi="96"
    inkscape:export-ydpi="96"
    inkscape:version="1.2.2 (b0a8486541, 2022-12-01)"
    xmlns:inkscape="http://www.inkscape.org/namespaces/inkscape"
    xmlns:sodipodi="http://sodipodi.sourceforge.net/DTD/sodipodi-0.dtd"
    xmlns="http://www.w3.org/2000/svg"
    xmlns:svg="http://www.w3.org/2000/svg">
    <defs
        id="defs710" />
    <sodipodi:namedview
        id="namedview708"
        pagecolor="#ffffff"
        bordercolor="#000000"
        borderopacity="0.25"
        inkscape:showpageshadow="2"
        inkscape:pageopacity="0.0"
        inkscape:pagecheckerboard="true"
        inkscape:deskcolor="#d1d1d1"
        showgrid="false"
        inkscape:zoom="12.0832"
        inkscape:cx="41.793565"
        inkscape:cy="23.876126"
        inkscape:window-width="1920"
        inkscape:window-height="1011"
        inkscape:window-x="0"
        inkscape:window-y="0"
        inkscape:window-maximized="1"
        inkscape:current-layer="svg706" />
    <g
        id="g6401">
        <g
            fill="None"
            fill-opacity="0"
            stroke="#22244b"
            stroke-opacity="1"
            stroke-width="0.3"
            id="g628"
            transform="matrix(0.04206928,0,0,0.04206928,-49.99369,-49.99369)">
            <path
                d="M 0,1250 H 1521 V 0 H 0 V 1250 M 1235,431 c -15.56,4.92 -30.2,12.8 -46,17 -4.29,-11.27 -9.23,-23.4 -14.92,-34.08 -5.7,-10.67 -11.63,-20.95 -17.85,-31.15 -6.22,-10.2 -13.67,-19.82 -20.53,-29.47 -6.87,-9.65 -14.85,-17.45 -22.45,-26.55 -7.6,-9.09 -15.7,-16.51 -24.48,-24.52 -8.78,-8.01 -17.62,-15.82 -27,-23 -9.38,-7.18 -18.83,-13.85 -28.85,-20.15 -10.01,-6.3 -20.42,-12.58 -31,-18 -10.57,-5.43 -23.48,-11.2 -34,-16 -10.51,-4.81 -31.21,-5.61 -25.94,-19.1 5.26,-13.5 7.97,-24.42 12.02,-37.98 125,37.46 235.6,139.84 281,263 m -133,36 c -3.81,-11.1 -9.29,-22.57 -15.3,-32.7 -6.02,-10.12 -11.7,-20.81 -19,-30 -7.31,-9.18 -14.41,-18.02 -22.45,-26.55 -8.05,-8.53 -16.66,-15.92 -25.5,-23.5 -8.84,-7.59 -19.28,-13.55 -28.98,-20.02 -9.7,-6.47 -21.67,-11.8 -32,-17 -10.33,-5.2 -30.55,-6.14 -24.45,-19.91 6.1,-13.76 7.1,-23.57 11.68,-37.32 12.14,3.43 24.89,8.41 36.23,13.77 11.34,5.36 22.95,11.17 33.47,17.54 10.51,6.36 19.94,13.05 29.55,20.44 9.6,7.4 18.75,15 27.5,23.5 8.75,8.5 16.38,16.76 24,26 7.63,9.24 15.03,19.48 21.5,29.5 6.48,10.01 13.34,20.83 18.52,31.48 5.19,10.65 16.72,26.9 2.01,30.55 -14.72,3.64 -22.5,10.82 -36.78,14.22 M 342,686 c -0.52,-5.35 -0.51,-11.72 0,-17 0,-18.28 2.26,-39.49 5.33,-56.67 3.07,-17.19 7.65,-34.46 12.65,-50.35 5,-15.9 10.91,-29.81 17.79,-44.21 6.88,-14.4 14.12,-27.57 22.53,-40.47 8.42,-12.89 16.37,-24.32 25.95,-36.05 9.59,-11.72 19.01,-22.35 30,-33 10.98,-10.65 21.03,-20.73 33,-30 11.97,-9.28 23.01,-17.65 36,-26 12.99,-8.36 26.43,-15.18 40.83,-22.17 14.39,-7 28.6,-12.43 44.6,-17.4 16,-4.97 32.89,-9.74 50.34,-12.66 17.46,-2.91 38.5,-5.26 56.98,-6.02 18.48,-0.76 41.24,1.17 59,3 17.76,1.83 35.75,6.7 52.22,10.78 16.48,4.07 31.01,9.97 46.01,15.99 15,6.02 28.74,12.99 42.47,20.54 13.72,7.54 25.56,16.13 38.05,24.94 12.5,8.8 22.63,17.73 34,28 11.37,10.27 21.29,20.22 31,32 9.72,11.77 18.47,22.14 27.02,34.98 8.55,12.84 16.06,25.37 23.54,39.47 7.47,14.09 13.17,28.51 19.01,43.98 5.85,15.46 10.15,30.98 14.01,47.99 3.85,17.02 6.16,36.99 7.67,55.33 1.51,18.34 0.9,40.96 -0.93,59.07 -1.82,18.12 -4,38.03 -8.06,54.94 -4.06,16.9 -9.31,32.66 -14.78,48.22 -5.47,15.56 -11.1,29.43 -18.53,43.47 -7.44,14.03 -15.17,26.4 -23.95,39.05 -8.79,12.64 -17.44,22.98 -27.5,34.5 -10.07,11.52 -20.11,21.23 -31.5,31.5 -11.39,10.28 -23.02,18.47 -35.45,27.55 -12.43,9.09 -24.44,16.13 -38.38,23.62 -13.93,7.5 -27.76,14.06 -43.14,19.86 -15.38,5.79 -31.05,10.1 -47.79,14.21 -16.73,4.11 -35.87,7.73 -53.99,9.01 -18.12,1.28 -42.4,3.36 -61,2 -18.6,-1.36 -37.63,-3.68 -55.01,-6.99 -17.37,-3.31 -34.04,-7.69 -50.06,-12.94 -16.02,-5.24 -30.19,-10.26 -44.95,-17.04 -14.77,-6.79 -28.59,-17.72 -42.67,-7.72 -14.09,9.99 -26.78,13.83 -40.54,22.46 -13.76,8.63 -26.87,13.42 -40.46,21.54 -13.6,8.11 -30.02,19.16 -45.06,7.44 -15.03,-11.73 -9.91,-30.28 -4.27,-45.77 5.63,-15.5 8.2,-33.09 14,-49 5.79,-15.92 7.29,-32.94 14,-49 6.71,-16.07 -3.97,-27.43 -12.75,-41.21 -8.78,-13.78 -14.6,-26.6 -21.54,-41.46 -6.93,-14.86 -12.41,-28.25 -17.62,-44.38 -5.21,-16.14 -9.27,-33.12 -12.4,-50.6 C 344.55,725.85 342,704.67 342,686 Z"
                id="path626" />
        </g>
        <g
            fill="None"
            fill-opacity="0"
            stroke="#fdfdfd"
            stroke-opacity="1"
            stroke-width="0.3"
            id="g632"
            transform="matrix(0.04206928,0,0,0.04206928,-49.99369,-49.99369)">
            <path
                d="M 1235,431 C 1189.6,307.84 1079,205.46 954,168 c -4.05,13.56 -6.76,24.48 -12.02,37.98 -5.27,13.49 15.43,14.29 25.94,19.1 10.52,4.8 23.43,10.57 34,16 10.58,5.42 20.99,11.7 31,18 10.02,6.3 19.47,12.97 28.85,20.15 9.38,7.18 18.22,14.99 27,23 8.78,8.01 16.88,15.43 24.48,24.52 7.6,9.1 15.58,16.9 22.45,26.55 6.86,9.65 14.31,19.27 20.53,29.47 6.22,10.2 12.15,20.48 17.85,31.15 5.69,10.68 10.63,22.81 14.92,34.08 15.8,-4.2 30.44,-12.08 46,-17 z"
                id="path630" />
        </g>
        <g
            fill="None"
            fill-opacity="0"
            stroke="#fdfdfd"
            stroke-opacity="1"
            stroke-width="0.3"
            id="g636"
            transform="matrix(0.04206928,0,0,0.04206928,-49.99369,-49.99369)">
            <path
                d="m 1102,467 c 14.28,-3.4 22.06,-10.58 36.78,-14.22 14.71,-3.65 3.18,-19.9 -2.01,-30.55 -5.18,-10.65 -12.04,-21.47 -18.52,-31.48 -6.47,-10.02 -13.87,-20.26 -21.5,-29.5 -7.62,-9.24 -15.25,-17.5 -24,-26 -8.75,-8.5 -17.9,-16.1 -27.5,-23.5 -9.61,-7.39 -19.04,-14.08 -29.55,-20.44 -10.52,-6.37 -22.13,-12.18 -33.47,-17.54 C 970.89,268.41 958.14,263.43 946,260 c -4.58,13.75 -5.58,23.56 -11.68,37.32 -6.1,13.77 14.12,14.71 24.45,19.91 10.33,5.2 22.3,10.53 32,17 9.7,6.47 20.14,12.43 28.98,20.02 8.84,7.58 17.45,14.97 25.5,23.5 8.04,8.53 15.14,17.37 22.45,26.55 7.3,9.19 12.98,19.88 19,30 6.01,10.13 11.49,21.6 15.3,32.7 z"
                id="path634" />
        </g>
        <g
            fill="None"
            fill-opacity="0"
            stroke="#fdfdfe"
            stroke-opacity="1"
            stroke-width="0.3"
            id="g640"
            transform="matrix(0.04206928,0,0,0.04206928,-49.99369,-49.99369)">
            <path
                d="m 342,669 c 0,5.67 0,11.33 0,17 0,18.67 2.55,39.85 5.67,57.33 3.13,17.48 7.19,34.46 12.4,50.6 5.21,16.13 10.69,29.52 17.62,44.38 6.94,14.86 12.76,27.68 21.54,41.46 8.78,13.78 19.46,25.14 12.75,41.21 -6.71,16.06 -8.21,33.08 -14,49 -5.8,15.91 -8.37,33.5 -14,49 -5.64,15.49 -10.76,34.04 4.27,45.77 15.04,11.72 31.46,0.67 45.06,-7.44 13.59,-8.12 26.7,-12.91 40.46,-21.54 13.76,-8.63 26.45,-12.47 40.54,-22.46 14.08,-10 27.9,0.93 42.67,7.72 14.76,6.78 28.93,11.8 44.95,17.04 16.02,5.25 32.69,9.63 50.06,12.94 17.38,3.31 36.41,5.63 55.01,6.99 18.6,1.36 42.88,-0.72 61,-2 18.12,-1.28 37.26,-4.9 53.99,-9.01 16.74,-4.11 32.41,-8.42 47.79,-14.21 15.38,-5.8 29.21,-12.36 43.14,-19.86 13.94,-7.49 25.95,-14.53 38.38,-23.62 12.43,-9.08 24.06,-17.27 35.45,-27.55 11.39,-10.27 21.43,-19.98 31.5,-31.5 10.06,-11.52 18.71,-21.86 27.5,-34.5 8.78,-12.65 16.51,-25.02 23.95,-39.05 7.43,-14.04 13.06,-27.91 18.53,-43.47 5.47,-15.56 10.72,-31.32 14.78,-48.22 4.06,-16.91 6.24,-36.82 8.06,-54.94 1.83,-18.11 2.44,-40.73 0.93,-59.07 -1.51,-18.34 -3.82,-38.31 -7.67,-55.33 -3.86,-17.01 -8.16,-32.53 -14.01,-47.99 -5.84,-15.47 -11.54,-29.89 -19.01,-43.98 -7.48,-14.1 -14.99,-26.63 -23.54,-39.47 -8.55,-12.84 -17.3,-23.21 -27.02,-34.98 -9.71,-11.78 -19.63,-21.73 -31,-32 -11.37,-10.27 -21.5,-19.2 -34,-28 -12.49,-8.81 -24.33,-17.4 -38.05,-24.94 -13.73,-7.55 -27.47,-14.52 -42.47,-20.54 -15,-6.02 -29.53,-11.92 -46.01,-15.99 C 812.75,303.7 794.76,298.83 777,297 c -17.76,-1.83 -40.52,-3.76 -59,-3 -18.48,0.76 -39.52,3.11 -56.98,6.02 -17.45,2.92 -34.34,7.69 -50.34,12.66 -16,4.97 -30.21,10.4 -44.6,17.4 -14.4,6.99 -27.84,13.81 -40.83,22.17 -12.99,8.35 -24.03,16.72 -36,26 -11.97,9.27 -22.02,19.35 -33,30 -10.99,10.65 -20.41,21.28 -30,33 -9.58,11.73 -17.53,23.16 -25.95,36.05 -8.41,12.9 -15.65,26.07 -22.53,40.47 -6.88,14.4 -12.79,28.31 -17.79,44.21 -5,15.89 -9.58,33.16 -12.65,50.35 C 344.26,629.51 342,650.72 342,669 M 735,344 c 170.29,0 328,149.68 328,322 0.61,6.29 0.6,13.77 0,20 0,17.05 -1.96,37.07 -5,53 -3.04,15.94 -7.63,31.21 -11.98,46.02 -4.34,14.82 -10.46,27.88 -16.79,41.21 -6.33,13.33 -13.15,25.8 -21.48,37.52 -8.34,11.71 -15.98,21.97 -25.5,32.5 -9.52,10.53 -18.16,19.85 -29,29 -10.84,9.14 -20.61,17.44 -32.5,25.5 -11.88,8.06 -23.77,15.25 -36.98,22.02 -13.21,6.77 -26.4,11.98 -40.99,17.01 -14.59,5.02 -29.8,9.19 -45.79,12.21 -15.98,3.03 -34.86,6.38 -52,7 -17.13,0.63 -39.48,-0.08 -55.99,-1.99 -16.51,-1.91 -33.27,-5.57 -48.67,-9.33 -15.4,-3.75 -29.71,-8.95 -44.01,-13.99 -14.29,-5.04 -27.31,-12.4 -40.55,-18.45 -13.24,-6.05 -24.82,-18.46 -37.85,-10.31 -13.02,8.16 -24.24,13.45 -37.17,20.83 -12.92,7.39 -25.79,13.34 -38.75,20.25 5.06,-14.63 8.17,-29.3 12.93,-44.07 4.76,-14.78 7.27,-29.46 12.85,-44.15 5.57,-14.7 -8.66,-25.37 -16.03,-37.53 -7.38,-12.15 -14.7,-22.8 -21.05,-35.94 -6.36,-13.15 -12.63,-25.1 -17.63,-39.38 -5,-14.29 -10.24,-28.74 -13.85,-44.15 -3.6,-15.41 -5.88,-33.27 -7.22,-49.78 -1.34,-16.51 -1.51,-38.31 0.33,-54.67 1.84,-16.36 4.96,-33.86 8.99,-49.01 4.03,-15.15 8.3,-29.22 14,-43 5.71,-13.78 12.39,-26.08 19.45,-38.55 7.06,-12.47 14.49,-22.87 22.98,-34.02 8.5,-11.14 16.53,-20.61 26,-31 9.47,-10.38 19.56,-18.82 30,-28 10.45,-9.18 20.85,-16.54 32.48,-24.52 11.63,-7.98 22.87,-14.37 36,-21 13.13,-6.63 26.87,-11.9 41.45,-16.55 14.58,-4.65 29.37,-9.05 45.33,-11.67 15.95,-2.62 35.77,-6.02 52.99,-5.01 4.09,-0.4 8.98,-0.39 13,0 z"
                id="path638" />
        </g>
        <g
            fill="None"
            fill-opacity="0"
            stroke="#827995"
            stroke-opacity="1"
            stroke-width="0.3"
            id="g644"
            transform="matrix(0.04206928,0,0,0.04206928,-49.99369,-49.99369)">
            <path
                d="m 722,344 c 4.33,0 8.67,0 13,0 -4.02,-0.39 -8.91,-0.4 -13,0 z"
                id="path642" />
        </g>
        <g
            fill="None"
            fill-opacity="0"
            stroke="#22244b"
            stroke-opacity="1"
            stroke-width="0.3"
            id="g648"
            transform="matrix(0.04206928,0,0,0.04206928,-49.99369,-49.99369)">
            <path
                d="m 1063,686 c 0,-6.67 0,-13.33 0,-20 0,-172.32 -157.71,-322 -328,-322 -4.33,0 -8.67,0 -13,0 -17.22,-1.01 -37.04,2.39 -52.99,5.01 -15.96,2.62 -30.75,7.02 -45.33,11.67 -14.58,4.65 -28.32,9.92 -41.45,16.55 -13.13,6.63 -24.37,13.02 -36,21 -11.63,7.98 -22.03,15.34 -32.48,24.52 -10.44,9.18 -20.53,17.62 -30,28 -9.47,10.39 -17.5,19.86 -26,31 -8.49,11.15 -15.92,21.55 -22.98,34.02 -7.06,12.47 -13.74,24.77 -19.45,38.55 -5.7,13.78 -9.97,27.85 -14,43 -4.03,15.15 -7.15,32.65 -8.99,49.01 -1.84,16.36 -1.67,38.16 -0.33,54.67 1.34,16.51 3.62,34.37 7.22,49.78 3.61,15.41 8.85,29.86 13.85,44.15 5,14.28 11.27,26.23 17.63,39.38 6.35,13.14 13.67,23.79 21.05,35.94 7.37,12.16 21.6,22.83 16.03,37.53 -5.58,14.69 -8.09,29.37 -12.85,44.15 -4.76,14.77 -7.87,29.44 -12.93,44.07 12.96,-6.91 25.83,-12.86 38.75,-20.25 12.93,-7.38 24.15,-12.67 37.17,-20.83 13.03,-8.15 24.61,4.26 37.85,10.31 13.24,6.05 26.26,13.41 40.55,18.45 14.3,5.04 28.61,10.24 44.01,13.99 15.4,3.76 32.16,7.42 48.67,9.33 16.51,1.91 38.86,2.62 55.99,1.99 17.14,-0.62 36.02,-3.97 52,-7 15.99,-3.02 31.2,-7.19 45.79,-12.21 14.59,-5.03 27.78,-10.24 40.99,-17.01 13.21,-6.77 25.1,-13.96 36.98,-22.02 11.89,-8.06 21.66,-16.36 32.5,-25.5 10.84,-9.15 19.48,-18.47 29,-29 9.52,-10.53 17.16,-20.79 25.5,-32.5 8.33,-11.72 15.15,-24.19 21.48,-37.52 6.33,-13.33 12.45,-26.39 16.79,-41.21 4.35,-14.81 8.94,-30.08 11.98,-46.02 3.04,-15.93 5,-35.95 5,-53 M 738,544 c -4.67,0 -9.33,0 -14,0 -68.8,0 -114.21,58.06 -119,123 -4.79,64.94 31.81,130.87 98.02,143.98 C 769.23,824.09 837.4,788.11 848,719 c -49.66,0 -99.34,0 -149,0 0,-23 0,-46 0,-69 77.67,0 155.33,0 233,0 5.03,56.17 -6.58,116.33 -40.77,159.23 C 857.04,852.13 817.6,874.84 765,884 712.4,893.16 649.9,880.04 607.75,847.25 565.61,814.45 540.6,776.2 530.01,723.99 c -10.59,-52.21 -1.16,-118.91 29.24,-162.74 30.41,-43.82 65.94,-70.07 116.77,-84.23 50.84,-14.16 119.53,-5.48 164.21,21.75 44.68,27.23 71.09,66.47 86.77,114.23 -30,0 -60,0 -90,0 -14.07,-40.64 -56.09,-69.73 -99,-69 z"
                id="path646" />
        </g>
        <g
            fill="None"
            fill-opacity="0"
            stroke="#fefefe"
            stroke-opacity="1"
            stroke-width="0.3"
            id="g652"
            transform="matrix(0.04206928,0,0,0.04206928,-49.99369,-49.99369)">
            <path
                d="m 724,544 c 4.41,-0.43 9.66,-0.42 14,0 42.91,-0.73 84.93,28.36 99,69 30,0 60,0 90,0 -15.68,-47.76 -42.09,-87 -86.77,-114.23 -44.68,-27.23 -113.37,-35.91 -164.21,-21.75 -50.83,14.16 -86.36,40.41 -116.77,84.23 -30.4,43.83 -39.83,110.53 -29.24,162.74 10.59,52.21 35.6,90.46 77.74,123.26 42.15,32.79 104.65,45.91 157.25,36.75 52.6,-9.16 92.04,-31.87 126.23,-74.77 34.19,-42.9 45.8,-103.06 40.77,-159.23 -77.67,0 -155.33,0 -233,0 0,23 0,46 0,69 49.66,0 99.34,0 149,0 -10.6,69.11 -78.77,105.09 -144.98,91.98 C 636.81,797.87 600.21,731.94 605,667 609.79,602.06 655.2,544 724,544 Z"
                id="path650" />
        </g>
        <g
            fill="None"
            fill-opacity="0"
            stroke="#807794"
            stroke-opacity="1"
            stroke-width="0.3"
            id="g656"
            transform="matrix(0.04206928,0,0,0.04206928,-49.99369,-49.99369)">
            <path
                d="m 724,544 c 4.67,0 9.33,0 14,0 -4.34,-0.42 -9.59,-0.43 -14,0 z"
                id="path654" />
        </g>
        <g
            fill="None"
            fill-opacity="0"
            stroke="#807794"
            stroke-opacity="1"
            stroke-width="0.3"
            id="g660"
            transform="matrix(0.04206928,0,0,0.04206928,-49.99369,-49.99369)">
            <path
                d="m 1063,686 c 0.6,-6.23 0.61,-13.71 0,-20 0,6.67 0,13.33 0,20 z"
                id="path658" />
        </g>
        <g
            fill="None"
            fill-opacity="0"
            stroke="#807794"
            stroke-opacity="1"
            stroke-width="0.3"
            id="g664"
            transform="matrix(0.04206928,0,0,0.04206928,-49.99369,-49.99369)">
            <path
                d="m 342,686 c 0,-5.67 0,-11.33 0,-17 -0.51,5.28 -0.52,11.65 0,17 z"
                id="path662" />
        </g>
        <g
            fill="#fdfdfd"
            fill-opacity="1"
            stroke="None"
            id="g672"
            transform="matrix(0.04206928,0,0,0.04206928,-49.99369,-49.99369)">
            <path
                d="M 1235,431 C 1189.6,307.84 1079,205.46 954,168 c -4.05,13.56 -6.76,24.48 -12.02,37.98 -5.27,13.49 15.43,14.29 25.94,19.1 10.52,4.8 23.43,10.57 34,16 10.58,5.42 20.99,11.7 31,18 10.02,6.3 19.47,12.97 28.85,20.15 9.38,7.18 18.22,14.99 27,23 8.78,8.01 16.88,15.43 24.48,24.52 7.6,9.1 15.58,16.9 22.45,26.55 6.86,9.65 14.31,19.27 20.53,29.47 6.22,10.2 12.15,20.48 17.85,31.15 5.69,10.68 10.63,22.81 14.92,34.08 15.8,-4.2 30.44,-12.08 46,-17 z"
                id="path670" />
        </g>
        <g
            fill="#fdfdfd"
            fill-opacity="1"
            stroke="None"
            id="g676"
            transform="matrix(0.04206928,0,0,0.04206928,-49.99369,-49.99369)">
            <path
                d="m 1102,467 c 14.28,-3.4 22.06,-10.58 36.78,-14.22 14.71,-3.65 3.18,-19.9 -2.01,-30.55 -5.18,-10.65 -12.04,-21.47 -18.52,-31.48 -6.47,-10.02 -13.87,-20.26 -21.5,-29.5 -7.62,-9.24 -15.25,-17.5 -24,-26 -8.75,-8.5 -17.9,-16.1 -27.5,-23.5 -9.61,-7.39 -19.04,-14.08 -29.55,-20.44 -10.52,-6.37 -22.13,-12.18 -33.47,-17.54 C 970.89,268.41 958.14,263.43 946,260 c -4.58,13.75 -5.58,23.56 -11.68,37.32 -6.1,13.77 14.12,14.71 24.45,19.91 10.33,5.2 22.3,10.53 32,17 9.7,6.47 20.14,12.43 28.98,20.02 8.84,7.58 17.45,14.97 25.5,23.5 8.04,8.53 15.14,17.37 22.45,26.55 7.3,9.19 12.98,19.88 19,30 6.01,10.13 11.49,21.6 15.3,32.7 z"
                id="path674" />
        </g>
        <g
            fill="#fdfdfe"
            fill-opacity="1"
            stroke="None"
            id="g680"
            transform="matrix(0.04206928,0,0,0.04206928,-49.99369,-49.99369)">
            <path
                d="m 342,669 c 0,5.67 0,11.33 0,17 0,18.67 2.55,39.85 5.67,57.33 3.13,17.48 7.19,34.46 12.4,50.6 5.21,16.13 10.69,29.52 17.62,44.38 6.94,14.86 12.76,27.68 21.54,41.46 8.78,13.78 19.46,25.14 12.75,41.21 -6.71,16.06 -8.21,33.08 -14,49 -5.8,15.91 -8.37,33.5 -14,49 -5.64,15.49 -10.76,34.04 4.27,45.77 15.04,11.72 31.46,0.67 45.06,-7.44 13.59,-8.12 26.7,-12.91 40.46,-21.54 13.76,-8.63 26.45,-12.47 40.54,-22.46 14.08,-10 27.9,0.93 42.67,7.72 14.76,6.78 28.93,11.8 44.95,17.04 16.02,5.25 32.69,9.63 50.06,12.94 17.38,3.31 36.41,5.63 55.01,6.99 18.6,1.36 42.88,-0.72 61,-2 18.12,-1.28 37.26,-4.9 53.99,-9.01 16.74,-4.11 32.41,-8.42 47.79,-14.21 15.38,-5.8 29.21,-12.36 43.14,-19.86 13.94,-7.49 25.95,-14.53 38.38,-23.62 12.43,-9.08 24.06,-17.27 35.45,-27.55 11.39,-10.27 21.43,-19.98 31.5,-31.5 10.06,-11.52 18.71,-21.86 27.5,-34.5 8.78,-12.65 16.51,-25.02 23.95,-39.05 7.43,-14.04 13.06,-27.91 18.53,-43.47 5.47,-15.56 10.72,-31.32 14.78,-48.22 4.06,-16.91 6.24,-36.82 8.06,-54.94 1.83,-18.11 2.44,-40.73 0.93,-59.07 -1.51,-18.34 -3.82,-38.31 -7.67,-55.33 -3.86,-17.01 -8.16,-32.53 -14.01,-47.99 -5.84,-15.47 -11.54,-29.89 -19.01,-43.98 -7.48,-14.1 -14.99,-26.63 -23.54,-39.47 -8.55,-12.84 -17.3,-23.21 -27.02,-34.98 -9.71,-11.78 -19.63,-21.73 -31,-32 -11.37,-10.27 -21.5,-19.2 -34,-28 -12.49,-8.81 -24.33,-17.4 -38.05,-24.94 -13.73,-7.55 -27.47,-14.52 -42.47,-20.54 -15,-6.02 -29.53,-11.92 -46.01,-15.99 C 812.75,303.7 794.76,298.83 777,297 c -17.76,-1.83 -40.52,-3.76 -59,-3 -18.48,0.76 -39.52,3.11 -56.98,6.02 -17.45,2.92 -34.34,7.69 -50.34,12.66 -16,4.97 -30.21,10.4 -44.6,17.4 -14.4,6.99 -27.84,13.81 -40.83,22.17 -12.99,8.35 -24.03,16.72 -36,26 -11.97,9.27 -22.02,19.35 -33,30 -10.99,10.65 -20.41,21.28 -30,33 -9.58,11.73 -17.53,23.16 -25.95,36.05 -8.41,12.9 -15.65,26.07 -22.53,40.47 -6.88,14.4 -12.79,28.31 -17.79,44.21 -5,15.89 -9.58,33.16 -12.65,50.35 C 344.26,629.51 342,650.72 342,669 M 735,344 c 170.29,0 328,149.68 328,322 0.61,6.29 0.6,13.77 0,20 0,17.05 -1.96,37.07 -5,53 -3.04,15.94 -7.63,31.21 -11.98,46.02 -4.34,14.82 -10.46,27.88 -16.79,41.21 -6.33,13.33 -13.15,25.8 -21.48,37.52 -8.34,11.71 -15.98,21.97 -25.5,32.5 -9.52,10.53 -18.16,19.85 -29,29 -10.84,9.14 -20.61,17.44 -32.5,25.5 -11.88,8.06 -23.77,15.25 -36.98,22.02 -13.21,6.77 -26.4,11.98 -40.99,17.01 -14.59,5.02 -29.8,9.19 -45.79,12.21 -15.98,3.03 -34.86,6.38 -52,7 -17.13,0.63 -39.48,-0.08 -55.99,-1.99 -16.51,-1.91 -33.27,-5.57 -48.67,-9.33 -15.4,-3.75 -29.71,-8.95 -44.01,-13.99 -14.29,-5.04 -27.31,-12.4 -40.55,-18.45 -13.24,-6.05 -24.82,-18.46 -37.85,-10.31 -13.02,8.16 -24.24,13.45 -37.17,20.83 -12.92,7.39 -25.79,13.34 -38.75,20.25 5.06,-14.63 8.17,-29.3 12.93,-44.07 4.76,-14.78 7.27,-29.46 12.85,-44.15 5.57,-14.7 -8.66,-25.37 -16.03,-37.53 -7.38,-12.15 -14.7,-22.8 -21.05,-35.94 -6.36,-13.15 -12.63,-25.1 -17.63,-39.38 -5,-14.29 -10.24,-28.74 -13.85,-44.15 -3.6,-15.41 -5.88,-33.27 -7.22,-49.78 -1.34,-16.51 -1.51,-38.31 0.33,-54.67 1.84,-16.36 4.96,-33.86 8.99,-49.01 4.03,-15.15 8.3,-29.22 14,-43 5.71,-13.78 12.39,-26.08 19.45,-38.55 7.06,-12.47 14.49,-22.87 22.98,-34.02 8.5,-11.14 16.53,-20.61 26,-31 9.47,-10.38 19.56,-18.82 30,-28 10.45,-9.18 20.85,-16.54 32.48,-24.52 11.63,-7.98 22.87,-14.37 36,-21 13.13,-6.63 26.87,-11.9 41.45,-16.55 14.58,-4.65 29.37,-9.05 45.33,-11.67 15.95,-2.62 35.77,-6.02 52.99,-5.01 4.09,-0.4 8.98,-0.39 13,0 z"
                id="path678" />
        </g>
        <g
            fill="#827995"
            fill-opacity="1"
            stroke="None"
            id="g684"
            transform="matrix(0.04206928,0,0,0.04206928,-49.99369,-49.99369)">
            <path
                d="m 722,344 c 4.33,0 8.67,0 13,0 -4.02,-0.39 -8.91,-0.4 -13,0 z"
                id="path682" />
        </g>
        <g
            fill="#fefefe"
            fill-opacity="1"
            stroke="None"
            id="g692"
            transform="matrix(0.04206928,0,0,0.04206928,-49.99369,-49.99369)">
            <path
                d="m 724,544 c 4.41,-0.43 9.66,-0.42 14,0 42.91,-0.73 84.93,28.36 99,69 30,0 60,0 90,0 -15.68,-47.76 -42.09,-87 -86.77,-114.23 -44.68,-27.23 -113.37,-35.91 -164.21,-21.75 -50.83,14.16 -86.36,40.41 -116.77,84.23 -30.4,43.83 -39.83,110.53 -29.24,162.74 10.59,52.21 35.6,90.46 77.74,123.26 42.15,32.79 104.65,45.91 157.25,36.75 52.6,-9.16 92.04,-31.87 126.23,-74.77 34.19,-42.9 45.8,-103.06 40.77,-159.23 -77.67,0 -155.33,0 -233,0 0,23 0,46 0,69 49.66,0 99.34,0 149,0 -10.6,69.11 -78.77,105.09 -144.98,91.98 C 636.81,797.87 600.21,731.94 605,667 609.79,602.06 655.2,544 724,544 Z"
                id="path690" />
        </g>
        <g
            fill="#807794"
            fill-opacity="1"
            stroke="None"
            id="g696"
            transform="matrix(0.04206928,0,0,0.04206928,-49.99369,-49.99369)">
            <path
                d="m 724,544 c 4.67,0 9.33,0 14,0 -4.34,-0.42 -9.59,-0.43 -14,0 z"
                id="path694" />
        </g>
        <g
            fill="#807794"
            fill-opacity="1"
            stroke="None"
            id="g700"
            transform="matrix(0.04206928,0,0,0.04206928,-49.99369,-49.99369)">
            <path
                d="m 1063,686 c 0.6,-6.23 0.61,-13.71 0,-20 0,6.67 0,13.33 0,20 z"
                id="path698" />
        </g>
        <g
            fill="#807794"
            fill-opacity="1"
            stroke="None"
            id="g704"
            transform="matrix(0.04206928,0,0,0.04206928,-49.99369,-49.99369)">
            <path
                d="m 342,686 c 0,-5.67 0,-11.33 0,-17 -0.51,5.28 -0.52,11.65 0,17 z"
                id="path702" />
        </g>
        <path
            style="fill:#22244b;fill-opacity:1;stroke-width:0.0787802"
            d="m -20.56254,-12.81774 c -1.76958,-0.2581 -3.32764,-1.01623 -4.6138,-2.24501 -1.79912,-1.71887 -2.6227,-3.69242 -2.62665,-6.29427 -0.003,-2.21778 0.4905,-3.82217 1.65792,-5.38587 1.32782,-1.77858 3.26837,-2.97136 5.39579,-3.31659 1.19635,-0.19414 3.0675,-0.0572 4.32881,0.31683 1.98625,0.58898 3.78621,2.10002 4.73395,3.97407 0.22653,0.44793 0.61034,1.3729 0.61034,1.47088 0,0.0359 -0.82658,0.0652 -1.83685,0.0652 h -1.83685 l -0.23113,-0.49134 c -0.49306,-1.04815 -1.80182,-2.05248 -3.00757,-2.30799 -0.68164,-0.14445 -1.87945,-0.14454 -2.5606,-1.7e-4 -2.57512,0.5457 -4.30027,3.26749 -3.99111,6.29682 0.133,1.30324 0.65539,2.47798 1.51411,3.40496 0.87079,0.94001 1.98935,1.4757 3.28774,1.57456 2.44527,0.18616 4.61541,-1.1573 5.27553,-3.26592 0.27807,-0.88824 0.6073,-0.7992 -2.95509,-0.7992 h -3.11182 v -1.37868 -1.37865 h 4.8358 4.83581 l 0.0475,0.17725 c 0.14245,0.53156 -0.0172,2.3597 -0.30514,3.49496 -0.68154,2.68668 -2.77514,4.91717 -5.38271,5.73465 -1.30598,0.40943 -2.79342,0.53882 -4.06398,0.35351 z"
            id="path1527" />
        <path
            style="fill:#22244b;fill-opacity:1;stroke-width:0.0787802"
            d="m -33.4997,-5.1567596 c -0.13576,-0.0852 -0.30415,-0.23677 -0.3742,-0.33679 -0.16515,-0.23578 -0.16722,-0.96095 -0.004,-1.41705 0.0678,-0.1896 0.24986,-0.80559 0.40452,-1.36887 0.15466,-0.56328 0.40182,-1.44956 0.54923,-1.9695104 0.40837,-1.44032 0.41053,-1.45122 0.33801,-1.70408 -0.0372,-0.12965 -0.2794,-0.5792 -0.53827,-0.99899 -2.16232,-3.50658 -2.9293,-7.72747 -2.12792,-11.71047 0.93854,-4.66466 4.34528,-9.03233 8.77491,-11.25001 3.99056,-1.99787 8.75093,-2.20576 12.93735,-0.565 4.8540204,1.9024 8.5221004,5.99366 9.8192104,10.95203 0.76463,2.92286 0.6392,6.23409 -0.34823,9.19266 -0.48717,1.4597 -0.98327,2.50647 -1.71035,3.60884 -2.17096,3.2915104 -5.4956104,5.6680104 -9.3059204,6.6519804 -1.15052,0.2971 -1.92685,0.41549 -3.38889,0.5168 -1.14604,0.0794 -1.4925,0.074 -2.50045,-0.0392 -2.06805,-0.23222 -3.99852,-0.75642 -5.70642,-1.54951 -0.91767,-0.42613 -1.29628,-0.48061 -1.68731,-0.24279 -0.12999,0.0791 -0.51995,0.29635 -0.86659,0.48287 -3.65579,1.96715 -3.3678,1.82272 -3.72033,1.86574 -0.20849,0.0254 -0.3713,-0.01 -0.54431,-0.11864 z m 17.06646,-2.64639 c 2.30403,-0.48795 4.13778,-1.31523 5.82027,-2.6257604 2.7462904,-2.13916 4.3818504,-4.78376 5.1346704,-8.30245 0.24357,-1.13846 0.30292,-3.57522 0.11914,-4.89174 -0.53555,-3.8365 -2.86392,-7.36925 -6.3866504,-9.69024 -4.09439,-2.69764 -9.46618,-2.99408 -13.90361,-0.76728 -2.60968,1.3096 -5.06095,3.75035 -6.42232,6.39475 -1.9783,3.84277 -2.00498,8.20575 -0.0754,12.3349 0.3409,0.72952 1.0104,1.85409 1.58249,2.65815 0.21195,0.29789 0.27074,0.44951 0.24437,0.63025 -0.0191,0.13089 -0.27322,1.06509 -0.56472,2.0760104 -0.2915,1.01091 -0.51124,1.85679 -0.4883,1.87973 0.0426,0.0426 1.63234,-0.77632 2.7685,-1.42605 0.34663,-0.19823 0.69963,-0.36068 0.78445,-0.361 0.0848,-3e-4 0.66975,0.26215 1.29987,0.58328 1.22366,0.62361 2.49976,1.09996 3.69633,1.3798 1.4616,0.34182 2.01169,0.39534 3.75177,0.36502 1.41651,-0.0247 1.79599,-0.0588 2.63915,-0.23737 z"
            id="path1529" />
        <path
            style="fill:#22244b;fill-opacity:1;stroke-width:0.0787802"
            d="m -3.8607596,-30.96931 c -1.24395,-2.69237 -3.55702,-4.87448 -6.2252404,-5.87279 -0.6541,-0.24473 -0.65612,-0.25214 -0.34987,-1.28606 l 0.26567,-0.89693 0.5514604,0.1979 c 0.69898,0.25083 1.97485,0.88702 2.63914,1.31596 0.88878,0.57388 2.09834,1.59997 2.7141,2.30238 1.09363,1.24754 2.40663,3.36142 2.40663,3.87458 0,0.18738 -0.0451,0.26898 -0.17726,0.32099 -0.2618,0.103 -1.00658,0.4068 -1.29746,0.52925 l -0.25363,0.10676 z"
            id="path1531" />
        <path
            style="fill:#22244b;fill-opacity:1;stroke-width:0.0787802"
            d="m -0.23044961,-31.86286 c -0.98606999,-2.32874 -2.99266999,-4.83041 -5.22846999,-6.5185 -1.18486,-0.8946 -3.09227,-1.9402 -4.21294,-2.30944 -0.7689904,-0.25337 -0.7710004,-0.25886 -0.4573204,-1.25268 0.1461304,-0.46299 0.2853104,-0.86602 0.3092904,-0.89562 0.024,-0.0296 0.49213,0.11773 1.04035,0.3274 3.67087,1.40398 6.84671,3.98837 9.02760999,7.34637 0.54648,0.84144 1.20730001,2.09897 1.50732001,2.86842 l 0.15771,0.40447 -0.44824,0.17459 c -0.24654,0.096 -0.66350001,0.25697 -0.92659001,0.35767 l -0.47833,0.18308 z"
            id="path1533" />
    </g>
    <rect
        style="fill:none;fill-opacity:1"
        id="rect7235"
        width="45.879547"
        height="42.719475"
        x="-37.359718"
        y="-44.265057"
        ry="0.082759537" />
    <rect
        style="fill:none;fill-opacity:1"
        id="rect7237"
        width="44.028072"
        height="41.131489"
        x="-41.06197"
        y="-44.951668"
        ry="0.082759537" />
    <rect
        style="fill:none;fill-opacity:1"
        id="rect10143"
        width="50.069519"
        height="46.262581"
        x="-43.296478"
        y="-46.358582"
        ry="0.082759537"
        clip-path="none" />
    <rect
        style="fill:none;fill-opacity:1"
        id="rect10871"
        width="47.007416"
        height="44.772907"
        x="-41.393009"
        y="-44.703388"
        ry="0.082759537"
        clip-path="none" />
</svg>
