<svg xmlns="http://www.w3.org/2000/svg"
     viewBox = "0 0 1521 1250"
     width="1521"
     height="1250">
    <g fill="None" fill-opacity="0.0" stroke="#22244B" stroke-opacity="1.00" stroke-width="0.3"><path d="
M 0.00 1250.00
L 1521.00 1250.00
L 1521.00 0.00
L 0.00 0.00
L 0.00 1250.00
M 1235.00 431.00
C 1219.44 435.92 1204.80 443.80 1189.00 448.00
C 1184.71 436.73 1179.77 424.60 1174.08 413.92 C 1168.38 403.25 1162.45 392.97 1156.23 382.77 C 1150.01 372.57 1142.56 362.95 1135.70 353.30 C 1128.83 343.65 1120.85 335.85 1113.25 326.75 C 1105.65 317.66 1097.55 310.24 1088.77 302.23 C 1079.99 294.22 1071.15 286.41 1061.77 279.23 C 1052.39 272.05 1042.94 265.38 1032.92 259.08 C 1022.91 252.78 1012.50 246.50 1001.92 241.08 C 991.35 235.65 978.44 229.88 967.92 225.08 C 957.41 220.27 936.71 219.47 941.98 205.98 C 947.24 192.48 949.95 181.56 954.00 168.00
C 1079.00 205.46 1189.60 307.84 1235.00 431.00
M 1102.00 467.00
C 1098.19 455.90 1092.71 444.43 1086.70 434.30 C 1080.68 424.18 1075.00 413.49 1067.70 404.30 C 1060.39 395.12 1053.29 386.28 1045.25 377.75 C 1037.20 369.22 1028.59 361.83 1019.75 354.25 C 1010.91 346.66 1000.47 340.70 990.77 334.23 C 981.07 327.76 969.10 322.43 958.77 317.23 C 948.44 312.03 928.22 311.09 934.32 297.32 C 940.42 283.56 941.42 273.75 946.00 260.00
C 958.14 263.43 970.89 268.41 982.23 273.77 C 993.57 279.13 1005.18 284.94 1015.70 291.31 C 1026.21 297.67 1035.64 304.36 1045.25 311.75 C 1054.85 319.15 1064.00 326.75 1072.75 335.25 C 1081.50 343.75 1089.13 352.01 1096.75 361.25 C 1104.38 370.49 1111.78 380.73 1118.25 390.75 C 1124.73 400.76 1131.59 411.58 1136.77 422.23 C 1141.96 432.88 1153.49 449.13 1138.78 452.78 C 1124.06 456.42 1116.28 463.60 1102.00 467.00
M 342.00 686.00
C 341.48 680.65 341.49 674.28 342.00 669.00
C 342.00 650.72 344.26 629.51 347.33 612.33 C 350.40 595.14 354.98 577.87 359.98 561.98 C 364.98 546.08 370.89 532.17 377.77 517.77 C 384.65 503.37 391.89 490.20 400.30 477.30 C 408.72 464.41 416.67 452.98 426.25 441.25 C 435.84 429.53 445.26 418.90 456.25 408.25 C 467.23 397.60 477.28 387.52 489.25 378.25 C 501.22 368.97 512.26 360.60 525.25 352.25 C 538.24 343.89 551.68 337.07 566.08 330.08 C 580.47 323.08 594.68 317.65 610.68 312.68 C 626.68 307.71 643.57 302.94 661.02 300.02 C 678.48 297.11 699.52 294.76 718.00 294.00 C 736.48 293.24 759.24 295.17 777.00 297.00 C 794.76 298.83 812.75 303.70 829.22 307.78 C 845.70 311.85 860.23 317.75 875.23 323.77 C 890.23 329.79 903.97 336.76 917.70 344.31 C 931.42 351.85 943.26 360.44 955.75 369.25 C 968.25 378.05 978.38 386.98 989.75 397.25 C 1001.12 407.52 1011.04 417.47 1020.75 429.25 C 1030.47 441.02 1039.22 451.39 1047.77 464.23 C 1056.32 477.07 1063.83 489.60 1071.31 503.70 C 1078.78 517.79 1084.48 532.21 1090.32 547.68 C 1096.17 563.14 1100.47 578.66 1104.33 595.67 C 1108.18 612.69 1110.49 632.66 1112.00 651.00 C 1113.51 669.34 1112.90 691.96 1111.07 710.07 C 1109.25 728.19 1107.07 748.10 1103.01 765.01 C 1098.95 781.91 1093.70 797.67 1088.23 813.23 C 1082.76 828.79 1077.13 842.66 1069.70 856.70 C 1062.26 870.73 1054.53 883.10 1045.75 895.75 C 1036.96 908.39 1028.31 918.73 1018.25 930.25 C 1008.18 941.77 998.14 951.48 986.75 961.75 C 975.36 972.03 963.73 980.22 951.30 989.30 C 938.87 998.39 926.86 1005.43 912.92 1012.92 C 898.99 1020.42 885.16 1026.98 869.78 1032.78 C 854.40 1038.57 838.73 1042.88 821.99 1046.99 C 805.26 1051.10 786.12 1054.72 768.00 1056.00 C 749.88 1057.28 725.60 1059.36 707.00 1058.00 C 688.40 1056.64 669.37 1054.32 651.99 1051.01 C 634.62 1047.70 617.95 1043.32 601.93 1038.07 C 585.91 1032.83 571.74 1027.81 556.98 1021.03 C 542.21 1014.24 528.39 1003.31 514.31 1013.31 C 500.22 1023.30 487.53 1027.14 473.77 1035.77 C 460.01 1044.40 446.90 1049.19 433.31 1057.31 C 419.71 1065.42 403.29 1076.47 388.25 1064.75 C 373.22 1053.02 378.34 1034.47 383.98 1018.98 C 389.61 1003.48 392.18 985.89 397.98 969.98 C 403.77 954.06 405.27 937.04 411.98 920.98 C 418.69 904.91 408.01 893.55 399.23 879.77 C 390.45 865.99 384.63 853.17 377.69 838.31 C 370.76 823.45 365.28 810.06 360.07 793.93 C 354.86 777.79 350.80 760.81 347.67 743.33 C 344.55 725.85 342.00 704.67 342.00 686.00 Z"/>
    </g>
    <g fill="None" fill-opacity="0.0" stroke="#FDFDFD" stroke-opacity="1.00" stroke-width="0.3"><path d="
M 1235.00 431.00
C 1189.60 307.84 1079.00 205.46 954.00 168.00
C 949.95 181.56 947.24 192.48 941.98 205.98 C 936.71 219.47 957.41 220.27 967.92 225.08 C 978.44 229.88 991.35 235.65 1001.92 241.08 C 1012.50 246.50 1022.91 252.78 1032.92 259.08 C 1042.94 265.38 1052.39 272.05 1061.77 279.23 C 1071.15 286.41 1079.99 294.22 1088.77 302.23 C 1097.55 310.24 1105.65 317.66 1113.25 326.75 C 1120.85 335.85 1128.83 343.65 1135.70 353.30 C 1142.56 362.95 1150.01 372.57 1156.23 382.77 C 1162.45 392.97 1168.38 403.25 1174.08 413.92 C 1179.77 424.60 1184.71 436.73 1189.00 448.00
C 1204.80 443.80 1219.44 435.92 1235.00 431.00 Z"/>
    </g>
    <g fill="None" fill-opacity="0.0" stroke="#FDFDFD" stroke-opacity="1.00" stroke-width="0.3"><path d="
M 1102.00 467.00
C 1116.28 463.60 1124.06 456.42 1138.78 452.78 C 1153.49 449.13 1141.96 432.88 1136.77 422.23 C 1131.59 411.58 1124.73 400.76 1118.25 390.75 C 1111.78 380.73 1104.38 370.49 1096.75 361.25 C 1089.13 352.01 1081.50 343.75 1072.75 335.25 C 1064.00 326.75 1054.85 319.15 1045.25 311.75 C 1035.64 304.36 1026.21 297.67 1015.70 291.31 C 1005.18 284.94 993.57 279.13 982.23 273.77 C 970.89 268.41 958.14 263.43 946.00 260.00
C 941.42 273.75 940.42 283.56 934.32 297.32 C 928.22 311.09 948.44 312.03 958.77 317.23 C 969.10 322.43 981.07 327.76 990.77 334.23 C 1000.47 340.70 1010.91 346.66 1019.75 354.25 C 1028.59 361.83 1037.20 369.22 1045.25 377.75 C 1053.29 386.28 1060.39 395.12 1067.70 404.30 C 1075.00 413.49 1080.68 424.18 1086.70 434.30 C 1092.71 444.43 1098.19 455.90 1102.00 467.00 Z"/>
    </g>
    <g fill="None" fill-opacity="0.0" stroke="#FDFDFE" stroke-opacity="1.00" stroke-width="0.3"><path d="
M 342.00 669.00
C 342.00 674.67 342.00 680.33 342.00 686.00
C 342.00 704.67 344.55 725.85 347.67 743.33 C 350.80 760.81 354.86 777.79 360.07 793.93 C 365.28 810.06 370.76 823.45 377.69 838.31 C 384.63 853.17 390.45 865.99 399.23 879.77 C 408.01 893.55 418.69 904.91 411.98 920.98 C 405.27 937.04 403.77 954.06 397.98 969.98 C 392.18 985.89 389.61 1003.48 383.98 1018.98 C 378.34 1034.47 373.22 1053.02 388.25 1064.75 C 403.29 1076.47 419.71 1065.42 433.31 1057.31 C 446.90 1049.19 460.01 1044.40 473.77 1035.77 C 487.53 1027.14 500.22 1023.30 514.31 1013.31 C 528.39 1003.31 542.21 1014.24 556.98 1021.03 C 571.74 1027.81 585.91 1032.83 601.93 1038.07 C 617.95 1043.32 634.62 1047.70 651.99 1051.01 C 669.37 1054.32 688.40 1056.64 707.00 1058.00 C 725.60 1059.36 749.88 1057.28 768.00 1056.00 C 786.12 1054.72 805.26 1051.10 821.99 1046.99 C 838.73 1042.88 854.40 1038.57 869.78 1032.78 C 885.16 1026.98 898.99 1020.42 912.92 1012.92 C 926.86 1005.43 938.87 998.39 951.30 989.30 C 963.73 980.22 975.36 972.03 986.75 961.75 C 998.14 951.48 1008.18 941.77 1018.25 930.25 C 1028.31 918.73 1036.96 908.39 1045.75 895.75 C 1054.53 883.10 1062.26 870.73 1069.70 856.70 C 1077.13 842.66 1082.76 828.79 1088.23 813.23 C 1093.70 797.67 1098.95 781.91 1103.01 765.01 C 1107.07 748.10 1109.25 728.19 1111.07 710.07 C 1112.90 691.96 1113.51 669.34 1112.00 651.00 C 1110.49 632.66 1108.18 612.69 1104.33 595.67 C 1100.47 578.66 1096.17 563.14 1090.32 547.68 C 1084.48 532.21 1078.78 517.79 1071.31 503.70 C 1063.83 489.60 1056.32 477.07 1047.77 464.23 C 1039.22 451.39 1030.47 441.02 1020.75 429.25 C 1011.04 417.47 1001.12 407.52 989.75 397.25 C 978.38 386.98 968.25 378.05 955.75 369.25 C 943.26 360.44 931.42 351.85 917.70 344.31 C 903.97 336.76 890.23 329.79 875.23 323.77 C 860.23 317.75 845.70 311.85 829.22 307.78 C 812.75 303.70 794.76 298.83 777.00 297.00 C 759.24 295.17 736.48 293.24 718.00 294.00 C 699.52 294.76 678.48 297.11 661.02 300.02 C 643.57 302.94 626.68 307.71 610.68 312.68 C 594.68 317.65 580.47 323.08 566.08 330.08 C 551.68 337.07 538.24 343.89 525.25 352.25 C 512.26 360.60 501.22 368.97 489.25 378.25 C 477.28 387.52 467.23 397.60 456.25 408.25 C 445.26 418.90 435.84 429.53 426.25 441.25 C 416.67 452.98 408.72 464.41 400.30 477.30 C 391.89 490.20 384.65 503.37 377.77 517.77 C 370.89 532.17 364.98 546.08 359.98 561.98 C 354.98 577.87 350.40 595.14 347.33 612.33 C 344.26 629.51 342.00 650.72 342.00 669.00
M 735.00 344.00
C 905.29 344.00 1063.00 493.68 1063.00 666.00
C 1063.61 672.29 1063.60 679.77 1063.00 686.00
C 1063.00 703.05 1061.04 723.07 1058.00 739.00 C 1054.96 754.94 1050.37 770.21 1046.02 785.02 C 1041.68 799.84 1035.56 812.90 1029.23 826.23 C 1022.90 839.56 1016.08 852.03 1007.75 863.75 C 999.41 875.46 991.77 885.72 982.25 896.25 C 972.73 906.78 964.09 916.10 953.25 925.25 C 942.41 934.39 932.64 942.69 920.75 950.75 C 908.87 958.81 896.98 966.00 883.77 972.77 C 870.56 979.54 857.37 984.75 842.78 989.78 C 828.19 994.80 812.98 998.97 796.99 1001.99 C 781.01 1005.02 762.13 1008.37 744.99 1008.99 C 727.86 1009.62 705.51 1008.91 689.00 1007.00 C 672.49 1005.09 655.73 1001.43 640.33 997.67 C 624.93 993.92 610.62 988.72 596.32 983.68 C 582.03 978.64 569.01 971.28 555.77 965.23 C 542.53 959.18 530.95 946.77 517.92 954.92 C 504.90 963.08 493.68 968.37 480.75 975.75 C 467.83 983.14 454.96 989.09 442.00 996.00
C 447.06 981.37 450.17 966.70 454.93 951.93 C 459.69 937.15 462.20 922.47 467.78 907.78 C 473.35 893.08 459.12 882.41 451.75 870.25 C 444.37 858.10 437.05 847.45 430.70 834.31 C 424.34 821.16 418.07 809.21 413.07 794.93 C 408.07 780.64 402.83 766.19 399.22 750.78 C 395.62 735.37 393.34 717.51 392.00 701.00 C 390.66 684.49 390.49 662.69 392.33 646.33 C 394.17 629.97 397.29 612.47 401.32 597.32 C 405.35 582.17 409.62 568.10 415.32 554.32 C 421.03 540.54 427.71 528.24 434.77 515.77 C 441.83 503.30 449.26 492.90 457.75 481.75 C 466.25 470.61 474.28 461.14 483.75 450.75 C 493.22 440.37 503.31 431.93 513.75 422.75 C 524.20 413.57 534.60 406.21 546.23 398.23 C 557.86 390.25 569.10 383.86 582.23 377.23 C 595.36 370.60 609.10 365.33 623.68 360.68 C 638.26 356.03 653.05 351.63 669.01 349.01 C 684.96 346.39 704.78 342.99 722.00 344.00
C 726.09 343.60 730.98 343.61 735.00 344.00 Z"/>
    </g>
    <g fill="None" fill-opacity="0.0" stroke="#827995" stroke-opacity="1.00" stroke-width="0.3"><path d="
M 722.00 344.00
C 726.33 344.00 730.67 344.00 735.00 344.00
C 730.98 343.61 726.09 343.60 722.00 344.00 Z"/>
    </g>
    <g fill="None" fill-opacity="0.0" stroke="#22244B" stroke-opacity="1.00" stroke-width="0.3"><path d="
M 1063.00 686.00
C 1063.00 679.33 1063.00 672.67 1063.00 666.00
C 1063.00 493.68 905.29 344.00 735.00 344.00
C 730.67 344.00 726.33 344.00 722.00 344.00
C 704.78 342.99 684.96 346.39 669.01 349.01 C 653.05 351.63 638.26 356.03 623.68 360.68 C 609.10 365.33 595.36 370.60 582.23 377.23 C 569.10 383.86 557.86 390.25 546.23 398.23 C 534.60 406.21 524.20 413.57 513.75 422.75 C 503.31 431.93 493.22 440.37 483.75 450.75 C 474.28 461.14 466.25 470.61 457.75 481.75 C 449.26 492.90 441.83 503.30 434.77 515.77 C 427.71 528.24 421.03 540.54 415.32 554.32 C 409.62 568.10 405.35 582.17 401.32 597.32 C 397.29 612.47 394.17 629.97 392.33 646.33 C 390.49 662.69 390.66 684.49 392.00 701.00 C 393.34 717.51 395.62 735.37 399.22 750.78 C 402.83 766.19 408.07 780.64 413.07 794.93 C 418.07 809.21 424.34 821.16 430.70 834.31 C 437.05 847.45 444.37 858.10 451.75 870.25 C 459.12 882.41 473.35 893.08 467.78 907.78 C 462.20 922.47 459.69 937.15 454.93 951.93 C 450.17 966.70 447.06 981.37 442.00 996.00
C 454.96 989.09 467.83 983.14 480.75 975.75 C 493.68 968.37 504.90 963.08 517.92 954.92 C 530.95 946.77 542.53 959.18 555.77 965.23 C 569.01 971.28 582.03 978.64 596.32 983.68 C 610.62 988.72 624.93 993.92 640.33 997.67 C 655.73 1001.43 672.49 1005.09 689.00 1007.00 C 705.51 1008.91 727.86 1009.62 744.99 1008.99 C 762.13 1008.37 781.01 1005.02 796.99 1001.99 C 812.98 998.97 828.19 994.80 842.78 989.78 C 857.37 984.75 870.56 979.54 883.77 972.77 C 896.98 966.00 908.87 958.81 920.75 950.75 C 932.64 942.69 942.41 934.39 953.25 925.25 C 964.09 916.10 972.73 906.78 982.25 896.25 C 991.77 885.72 999.41 875.46 1007.75 863.75 C 1016.08 852.03 1022.90 839.56 1029.23 826.23 C 1035.56 812.90 1041.68 799.84 1046.02 785.02 C 1050.37 770.21 1054.96 754.94 1058.00 739.00 C 1061.04 723.07 1063.00 703.05 1063.00 686.00
M 738.00 544.00
C 733.33 544.00 728.67 544.00 724.00 544.00
C 655.20 544.00 609.79 602.06 605.00 667.00 C 600.21 731.94 636.81 797.87 703.02 810.98 C 769.23 824.09 837.40 788.11 848.00 719.00
C 798.34 719.00 748.66 719.00 699.00 719.00
C 699.00 696.00 699.00 673.00 699.00 650.00
C 776.67 650.00 854.33 650.00 932.00 650.00
C 937.03 706.17 925.42 766.33 891.23 809.23 C 857.04 852.13 817.60 874.84 765.00 884.00 C 712.40 893.16 649.90 880.04 607.75 847.25 C 565.61 814.45 540.60 776.20 530.01 723.99 C 519.42 671.78 528.85 605.08 559.25 561.25 C 589.66 517.43 625.19 491.18 676.02 477.02 C 726.86 462.86 795.55 471.54 840.23 498.77 C 884.91 526.00 911.32 565.24 927.00 613.00
C 897.00 613.00 867.00 613.00 837.00 613.00
C 822.93 572.36 780.91 543.27 738.00 544.00 Z"/>
    </g>
    <g fill="None" fill-opacity="0.0" stroke="#FEFEFE" stroke-opacity="1.00" stroke-width="0.3"><path d="
M 724.00 544.00
C 728.41 543.57 733.66 543.58 738.00 544.00
C 780.91 543.27 822.93 572.36 837.00 613.00
C 867.00 613.00 897.00 613.00 927.00 613.00
C 911.32 565.24 884.91 526.00 840.23 498.77 C 795.55 471.54 726.86 462.86 676.02 477.02 C 625.19 491.18 589.66 517.43 559.25 561.25 C 528.85 605.08 519.42 671.78 530.01 723.99 C 540.60 776.20 565.61 814.45 607.75 847.25 C 649.90 880.04 712.40 893.16 765.00 884.00 C 817.60 874.84 857.04 852.13 891.23 809.23 C 925.42 766.33 937.03 706.17 932.00 650.00
C 854.33 650.00 776.67 650.00 699.00 650.00
C 699.00 673.00 699.00 696.00 699.00 719.00
C 748.66 719.00 798.34 719.00 848.00 719.00
C 837.40 788.11 769.23 824.09 703.02 810.98 C 636.81 797.87 600.21 731.94 605.00 667.00 C 609.79 602.06 655.20 544.00 724.00 544.00 Z"/>
    </g>
    <g fill="None" fill-opacity="0.0" stroke="#807794" stroke-opacity="1.00" stroke-width="0.3"><path d="
M 724.00 544.00
C 728.67 544.00 733.33 544.00 738.00 544.00
C 733.66 543.58 728.41 543.57 724.00 544.00 Z"/>
    </g>
    <g fill="None" fill-opacity="0.0" stroke="#807794" stroke-opacity="1.00" stroke-width="0.3"><path d="
M 1063.00 686.00
C 1063.60 679.77 1063.61 672.29 1063.00 666.00
C 1063.00 672.67 1063.00 679.33 1063.00 686.00 Z"/>
    </g>
    <g fill="None" fill-opacity="0.0" stroke="#807794" stroke-opacity="1.00" stroke-width="0.3"><path d="
M 342.00 686.00
C 342.00 680.33 342.00 674.67 342.00 669.00
C 341.49 674.28 341.48 680.65 342.00 686.00 Z"/>
    </g>
    <g fill="#22244B" fill-opacity="1.00" stroke="None">
        <path d="
M 0.00 1250.00
L 1521.00 1250.00
L 1521.00 0.00
L 0.00 0.00
L 0.00 1250.00
M 1235.00 431.00
C 1219.44 435.92 1204.80 443.80 1189.00 448.00
C 1184.71 436.73 1179.77 424.60 1174.08 413.92 C 1168.38 403.25 1162.45 392.97 1156.23 382.77 C 1150.01 372.57 1142.56 362.95 1135.70 353.30 C 1128.83 343.65 1120.85 335.85 1113.25 326.75 C 1105.65 317.66 1097.55 310.24 1088.77 302.23 C 1079.99 294.22 1071.15 286.41 1061.77 279.23 C 1052.39 272.05 1042.94 265.38 1032.92 259.08 C 1022.91 252.78 1012.50 246.50 1001.92 241.08 C 991.35 235.65 978.44 229.88 967.92 225.08 C 957.41 220.27 936.71 219.47 941.98 205.98 C 947.24 192.48 949.95 181.56 954.00 168.00
C 1079.00 205.46 1189.60 307.84 1235.00 431.00
M 1102.00 467.00
C 1098.19 455.90 1092.71 444.43 1086.70 434.30 C 1080.68 424.18 1075.00 413.49 1067.70 404.30 C 1060.39 395.12 1053.29 386.28 1045.25 377.75 C 1037.20 369.22 1028.59 361.83 1019.75 354.25 C 1010.91 346.66 1000.47 340.70 990.77 334.23 C 981.07 327.76 969.10 322.43 958.77 317.23 C 948.44 312.03 928.22 311.09 934.32 297.32 C 940.42 283.56 941.42 273.75 946.00 260.00
C 958.14 263.43 970.89 268.41 982.23 273.77 C 993.57 279.13 1005.18 284.94 1015.70 291.31 C 1026.21 297.67 1035.64 304.36 1045.25 311.75 C 1054.85 319.15 1064.00 326.75 1072.75 335.25 C 1081.50 343.75 1089.13 352.01 1096.75 361.25 C 1104.38 370.49 1111.78 380.73 1118.25 390.75 C 1124.73 400.76 1131.59 411.58 1136.77 422.23 C 1141.96 432.88 1153.49 449.13 1138.78 452.78 C 1124.06 456.42 1116.28 463.60 1102.00 467.00
M 342.00 686.00
C 341.48 680.65 341.49 674.28 342.00 669.00
C 342.00 650.72 344.26 629.51 347.33 612.33 C 350.40 595.14 354.98 577.87 359.98 561.98 C 364.98 546.08 370.89 532.17 377.77 517.77 C 384.65 503.37 391.89 490.20 400.30 477.30 C 408.72 464.41 416.67 452.98 426.25 441.25 C 435.84 429.53 445.26 418.90 456.25 408.25 C 467.23 397.60 477.28 387.52 489.25 378.25 C 501.22 368.97 512.26 360.60 525.25 352.25 C 538.24 343.89 551.68 337.07 566.08 330.08 C 580.47 323.08 594.68 317.65 610.68 312.68 C 626.68 307.71 643.57 302.94 661.02 300.02 C 678.48 297.11 699.52 294.76 718.00 294.00 C 736.48 293.24 759.24 295.17 777.00 297.00 C 794.76 298.83 812.75 303.70 829.22 307.78 C 845.70 311.85 860.23 317.75 875.23 323.77 C 890.23 329.79 903.97 336.76 917.70 344.31 C 931.42 351.85 943.26 360.44 955.75 369.25 C 968.25 378.05 978.38 386.98 989.75 397.25 C 1001.12 407.52 1011.04 417.47 1020.75 429.25 C 1030.47 441.02 1039.22 451.39 1047.77 464.23 C 1056.32 477.07 1063.83 489.60 1071.31 503.70 C 1078.78 517.79 1084.48 532.21 1090.32 547.68 C 1096.17 563.14 1100.47 578.66 1104.33 595.67 C 1108.18 612.69 1110.49 632.66 1112.00 651.00 C 1113.51 669.34 1112.90 691.96 1111.07 710.07 C 1109.25 728.19 1107.07 748.10 1103.01 765.01 C 1098.95 781.91 1093.70 797.67 1088.23 813.23 C 1082.76 828.79 1077.13 842.66 1069.70 856.70 C 1062.26 870.73 1054.53 883.10 1045.75 895.75 C 1036.96 908.39 1028.31 918.73 1018.25 930.25 C 1008.18 941.77 998.14 951.48 986.75 961.75 C 975.36 972.03 963.73 980.22 951.30 989.30 C 938.87 998.39 926.86 1005.43 912.92 1012.92 C 898.99 1020.42 885.16 1026.98 869.78 1032.78 C 854.40 1038.57 838.73 1042.88 821.99 1046.99 C 805.26 1051.10 786.12 1054.72 768.00 1056.00 C 749.88 1057.28 725.60 1059.36 707.00 1058.00 C 688.40 1056.64 669.37 1054.32 651.99 1051.01 C 634.62 1047.70 617.95 1043.32 601.93 1038.07 C 585.91 1032.83 571.74 1027.81 556.98 1021.03 C 542.21 1014.24 528.39 1003.31 514.31 1013.31 C 500.22 1023.30 487.53 1027.14 473.77 1035.77 C 460.01 1044.40 446.90 1049.19 433.31 1057.31 C 419.71 1065.42 403.29 1076.47 388.25 1064.75 C 373.22 1053.02 378.34 1034.47 383.98 1018.98 C 389.61 1003.48 392.18 985.89 397.98 969.98 C 403.77 954.06 405.27 937.04 411.98 920.98 C 418.69 904.91 408.01 893.55 399.23 879.77 C 390.45 865.99 384.63 853.17 377.69 838.31 C 370.76 823.45 365.28 810.06 360.07 793.93 C 354.86 777.79 350.80 760.81 347.67 743.33 C 344.55 725.85 342.00 704.67 342.00 686.00 Z"/>
    </g>
    <g fill="#FDFDFD" fill-opacity="1.00" stroke="None">
        <path d="
M 1235.00 431.00
C 1189.60 307.84 1079.00 205.46 954.00 168.00
C 949.95 181.56 947.24 192.48 941.98 205.98 C 936.71 219.47 957.41 220.27 967.92 225.08 C 978.44 229.88 991.35 235.65 1001.92 241.08 C 1012.50 246.50 1022.91 252.78 1032.92 259.08 C 1042.94 265.38 1052.39 272.05 1061.77 279.23 C 1071.15 286.41 1079.99 294.22 1088.77 302.23 C 1097.55 310.24 1105.65 317.66 1113.25 326.75 C 1120.85 335.85 1128.83 343.65 1135.70 353.30 C 1142.56 362.95 1150.01 372.57 1156.23 382.77 C 1162.45 392.97 1168.38 403.25 1174.08 413.92 C 1179.77 424.60 1184.71 436.73 1189.00 448.00
C 1204.80 443.80 1219.44 435.92 1235.00 431.00 Z"/>
    </g>
    <g fill="#FDFDFD" fill-opacity="1.00" stroke="None">
        <path d="
M 1102.00 467.00
C 1116.28 463.60 1124.06 456.42 1138.78 452.78 C 1153.49 449.13 1141.96 432.88 1136.77 422.23 C 1131.59 411.58 1124.73 400.76 1118.25 390.75 C 1111.78 380.73 1104.38 370.49 1096.75 361.25 C 1089.13 352.01 1081.50 343.75 1072.75 335.25 C 1064.00 326.75 1054.85 319.15 1045.25 311.75 C 1035.64 304.36 1026.21 297.67 1015.70 291.31 C 1005.18 284.94 993.57 279.13 982.23 273.77 C 970.89 268.41 958.14 263.43 946.00 260.00
C 941.42 273.75 940.42 283.56 934.32 297.32 C 928.22 311.09 948.44 312.03 958.77 317.23 C 969.10 322.43 981.07 327.76 990.77 334.23 C 1000.47 340.70 1010.91 346.66 1019.75 354.25 C 1028.59 361.83 1037.20 369.22 1045.25 377.75 C 1053.29 386.28 1060.39 395.12 1067.70 404.30 C 1075.00 413.49 1080.68 424.18 1086.70 434.30 C 1092.71 444.43 1098.19 455.90 1102.00 467.00 Z"/>
    </g>
    <g fill="#FDFDFE" fill-opacity="1.00" stroke="None">
        <path d="
M 342.00 669.00
C 342.00 674.67 342.00 680.33 342.00 686.00
C 342.00 704.67 344.55 725.85 347.67 743.33 C 350.80 760.81 354.86 777.79 360.07 793.93 C 365.28 810.06 370.76 823.45 377.69 838.31 C 384.63 853.17 390.45 865.99 399.23 879.77 C 408.01 893.55 418.69 904.91 411.98 920.98 C 405.27 937.04 403.77 954.06 397.98 969.98 C 392.18 985.89 389.61 1003.48 383.98 1018.98 C 378.34 1034.47 373.22 1053.02 388.25 1064.75 C 403.29 1076.47 419.71 1065.42 433.31 1057.31 C 446.90 1049.19 460.01 1044.40 473.77 1035.77 C 487.53 1027.14 500.22 1023.30 514.31 1013.31 C 528.39 1003.31 542.21 1014.24 556.98 1021.03 C 571.74 1027.81 585.91 1032.83 601.93 1038.07 C 617.95 1043.32 634.62 1047.70 651.99 1051.01 C 669.37 1054.32 688.40 1056.64 707.00 1058.00 C 725.60 1059.36 749.88 1057.28 768.00 1056.00 C 786.12 1054.72 805.26 1051.10 821.99 1046.99 C 838.73 1042.88 854.40 1038.57 869.78 1032.78 C 885.16 1026.98 898.99 1020.42 912.92 1012.92 C 926.86 1005.43 938.87 998.39 951.30 989.30 C 963.73 980.22 975.36 972.03 986.75 961.75 C 998.14 951.48 1008.18 941.77 1018.25 930.25 C 1028.31 918.73 1036.96 908.39 1045.75 895.75 C 1054.53 883.10 1062.26 870.73 1069.70 856.70 C 1077.13 842.66 1082.76 828.79 1088.23 813.23 C 1093.70 797.67 1098.95 781.91 1103.01 765.01 C 1107.07 748.10 1109.25 728.19 1111.07 710.07 C 1112.90 691.96 1113.51 669.34 1112.00 651.00 C 1110.49 632.66 1108.18 612.69 1104.33 595.67 C 1100.47 578.66 1096.17 563.14 1090.32 547.68 C 1084.48 532.21 1078.78 517.79 1071.31 503.70 C 1063.83 489.60 1056.32 477.07 1047.77 464.23 C 1039.22 451.39 1030.47 441.02 1020.75 429.25 C 1011.04 417.47 1001.12 407.52 989.75 397.25 C 978.38 386.98 968.25 378.05 955.75 369.25 C 943.26 360.44 931.42 351.85 917.70 344.31 C 903.97 336.76 890.23 329.79 875.23 323.77 C 860.23 317.75 845.70 311.85 829.22 307.78 C 812.75 303.70 794.76 298.83 777.00 297.00 C 759.24 295.17 736.48 293.24 718.00 294.00 C 699.52 294.76 678.48 297.11 661.02 300.02 C 643.57 302.94 626.68 307.71 610.68 312.68 C 594.68 317.65 580.47 323.08 566.08 330.08 C 551.68 337.07 538.24 343.89 525.25 352.25 C 512.26 360.60 501.22 368.97 489.25 378.25 C 477.28 387.52 467.23 397.60 456.25 408.25 C 445.26 418.90 435.84 429.53 426.25 441.25 C 416.67 452.98 408.72 464.41 400.30 477.30 C 391.89 490.20 384.65 503.37 377.77 517.77 C 370.89 532.17 364.98 546.08 359.98 561.98 C 354.98 577.87 350.40 595.14 347.33 612.33 C 344.26 629.51 342.00 650.72 342.00 669.00
M 735.00 344.00
C 905.29 344.00 1063.00 493.68 1063.00 666.00
C 1063.61 672.29 1063.60 679.77 1063.00 686.00
C 1063.00 703.05 1061.04 723.07 1058.00 739.00 C 1054.96 754.94 1050.37 770.21 1046.02 785.02 C 1041.68 799.84 1035.56 812.90 1029.23 826.23 C 1022.90 839.56 1016.08 852.03 1007.75 863.75 C 999.41 875.46 991.77 885.72 982.25 896.25 C 972.73 906.78 964.09 916.10 953.25 925.25 C 942.41 934.39 932.64 942.69 920.75 950.75 C 908.87 958.81 896.98 966.00 883.77 972.77 C 870.56 979.54 857.37 984.75 842.78 989.78 C 828.19 994.80 812.98 998.97 796.99 1001.99 C 781.01 1005.02 762.13 1008.37 744.99 1008.99 C 727.86 1009.62 705.51 1008.91 689.00 1007.00 C 672.49 1005.09 655.73 1001.43 640.33 997.67 C 624.93 993.92 610.62 988.72 596.32 983.68 C 582.03 978.64 569.01 971.28 555.77 965.23 C 542.53 959.18 530.95 946.77 517.92 954.92 C 504.90 963.08 493.68 968.37 480.75 975.75 C 467.83 983.14 454.96 989.09 442.00 996.00
C 447.06 981.37 450.17 966.70 454.93 951.93 C 459.69 937.15 462.20 922.47 467.78 907.78 C 473.35 893.08 459.12 882.41 451.75 870.25 C 444.37 858.10 437.05 847.45 430.70 834.31 C 424.34 821.16 418.07 809.21 413.07 794.93 C 408.07 780.64 402.83 766.19 399.22 750.78 C 395.62 735.37 393.34 717.51 392.00 701.00 C 390.66 684.49 390.49 662.69 392.33 646.33 C 394.17 629.97 397.29 612.47 401.32 597.32 C 405.35 582.17 409.62 568.10 415.32 554.32 C 421.03 540.54 427.71 528.24 434.77 515.77 C 441.83 503.30 449.26 492.90 457.75 481.75 C 466.25 470.61 474.28 461.14 483.75 450.75 C 493.22 440.37 503.31 431.93 513.75 422.75 C 524.20 413.57 534.60 406.21 546.23 398.23 C 557.86 390.25 569.10 383.86 582.23 377.23 C 595.36 370.60 609.10 365.33 623.68 360.68 C 638.26 356.03 653.05 351.63 669.01 349.01 C 684.96 346.39 704.78 342.99 722.00 344.00
C 726.09 343.60 730.98 343.61 735.00 344.00 Z"/>
    </g>
    <g fill="#827995" fill-opacity="1.00" stroke="None">
        <path d="
M 722.00 344.00
C 726.33 344.00 730.67 344.00 735.00 344.00
C 730.98 343.61 726.09 343.60 722.00 344.00 Z"/>
    </g>
    <g fill="#22244B" fill-opacity="1.00" stroke="None">
        <path d="
M 1063.00 686.00
C 1063.00 679.33 1063.00 672.67 1063.00 666.00
C 1063.00 493.68 905.29 344.00 735.00 344.00
C 730.67 344.00 726.33 344.00 722.00 344.00
C 704.78 342.99 684.96 346.39 669.01 349.01 C 653.05 351.63 638.26 356.03 623.68 360.68 C 609.10 365.33 595.36 370.60 582.23 377.23 C 569.10 383.86 557.86 390.25 546.23 398.23 C 534.60 406.21 524.20 413.57 513.75 422.75 C 503.31 431.93 493.22 440.37 483.75 450.75 C 474.28 461.14 466.25 470.61 457.75 481.75 C 449.26 492.90 441.83 503.30 434.77 515.77 C 427.71 528.24 421.03 540.54 415.32 554.32 C 409.62 568.10 405.35 582.17 401.32 597.32 C 397.29 612.47 394.17 629.97 392.33 646.33 C 390.49 662.69 390.66 684.49 392.00 701.00 C 393.34 717.51 395.62 735.37 399.22 750.78 C 402.83 766.19 408.07 780.64 413.07 794.93 C 418.07 809.21 424.34 821.16 430.70 834.31 C 437.05 847.45 444.37 858.10 451.75 870.25 C 459.12 882.41 473.35 893.08 467.78 907.78 C 462.20 922.47 459.69 937.15 454.93 951.93 C 450.17 966.70 447.06 981.37 442.00 996.00
C 454.96 989.09 467.83 983.14 480.75 975.75 C 493.68 968.37 504.90 963.08 517.92 954.92 C 530.95 946.77 542.53 959.18 555.77 965.23 C 569.01 971.28 582.03 978.64 596.32 983.68 C 610.62 988.72 624.93 993.92 640.33 997.67 C 655.73 1001.43 672.49 1005.09 689.00 1007.00 C 705.51 1008.91 727.86 1009.62 744.99 1008.99 C 762.13 1008.37 781.01 1005.02 796.99 1001.99 C 812.98 998.97 828.19 994.80 842.78 989.78 C 857.37 984.75 870.56 979.54 883.77 972.77 C 896.98 966.00 908.87 958.81 920.75 950.75 C 932.64 942.69 942.41 934.39 953.25 925.25 C 964.09 916.10 972.73 906.78 982.25 896.25 C 991.77 885.72 999.41 875.46 1007.75 863.75 C 1016.08 852.03 1022.90 839.56 1029.23 826.23 C 1035.56 812.90 1041.68 799.84 1046.02 785.02 C 1050.37 770.21 1054.96 754.94 1058.00 739.00 C 1061.04 723.07 1063.00 703.05 1063.00 686.00
M 738.00 544.00
C 733.33 544.00 728.67 544.00 724.00 544.00
C 655.20 544.00 609.79 602.06 605.00 667.00 C 600.21 731.94 636.81 797.87 703.02 810.98 C 769.23 824.09 837.40 788.11 848.00 719.00
C 798.34 719.00 748.66 719.00 699.00 719.00
C 699.00 696.00 699.00 673.00 699.00 650.00
C 776.67 650.00 854.33 650.00 932.00 650.00
C 937.03 706.17 925.42 766.33 891.23 809.23 C 857.04 852.13 817.60 874.84 765.00 884.00 C 712.40 893.16 649.90 880.04 607.75 847.25 C 565.61 814.45 540.60 776.20 530.01 723.99 C 519.42 671.78 528.85 605.08 559.25 561.25 C 589.66 517.43 625.19 491.18 676.02 477.02 C 726.86 462.86 795.55 471.54 840.23 498.77 C 884.91 526.00 911.32 565.24 927.00 613.00
C 897.00 613.00 867.00 613.00 837.00 613.00
C 822.93 572.36 780.91 543.27 738.00 544.00 Z"/>
    </g>
    <g fill="#FEFEFE" fill-opacity="1.00" stroke="None">
        <path d="
M 724.00 544.00
C 728.41 543.57 733.66 543.58 738.00 544.00
C 780.91 543.27 822.93 572.36 837.00 613.00
C 867.00 613.00 897.00 613.00 927.00 613.00
C 911.32 565.24 884.91 526.00 840.23 498.77 C 795.55 471.54 726.86 462.86 676.02 477.02 C 625.19 491.18 589.66 517.43 559.25 561.25 C 528.85 605.08 519.42 671.78 530.01 723.99 C 540.60 776.20 565.61 814.45 607.75 847.25 C 649.90 880.04 712.40 893.16 765.00 884.00 C 817.60 874.84 857.04 852.13 891.23 809.23 C 925.42 766.33 937.03 706.17 932.00 650.00
C 854.33 650.00 776.67 650.00 699.00 650.00
C 699.00 673.00 699.00 696.00 699.00 719.00
C 748.66 719.00 798.34 719.00 848.00 719.00
C 837.40 788.11 769.23 824.09 703.02 810.98 C 636.81 797.87 600.21 731.94 605.00 667.00 C 609.79 602.06 655.20 544.00 724.00 544.00 Z"/>
    </g>
    <g fill="#807794" fill-opacity="1.00" stroke="None">
        <path d="
M 724.00 544.00
C 728.67 544.00 733.33 544.00 738.00 544.00
C 733.66 543.58 728.41 543.57 724.00 544.00 Z"/>
    </g>
    <g fill="#807794" fill-opacity="1.00" stroke="None">
        <path d="
M 1063.00 686.00
C 1063.60 679.77 1063.61 672.29 1063.00 666.00
C 1063.00 672.67 1063.00 679.33 1063.00 686.00 Z"/>
    </g>
    <g fill="#807794" fill-opacity="1.00" stroke="None">
        <path d="
M 342.00 686.00
C 342.00 680.33 342.00 674.67 342.00 669.00
C 341.49 674.28 341.48 680.65 342.00 686.00 Z"/>
    </g>
</svg>
